<?xml version="1.0" encoding="iso-8859-1"?>
<!-- Generator: Adobe Illustrator 19.0.0, SVG Export Plug-In . SVG Version: 6.00 Build 0)  -->
<svg version="1.1" id="Layer_1" xmlns="http://www.w3.org/2000/svg" xmlns:xlink="http://www.w3.org/1999/xlink" x="0px" y="0px"
	 viewBox="0 0 512.002 512.002" style="enable-background:new 0 0 512.002 512.002;" xml:space="preserve">
<rect x="7.098" y="151.896" style="fill:#36A9E1;" width="40.768" height="360.106"/>
<rect x="47.11" y="119.882" style="fill:#A5C6E3;" width="40.768" height="392.12"/>
<rect x="87.12" y="87.873" style="fill:#1D71B8;" width="424.124" height="424.124"/>
<g>
	<polygon style="fill:#1D1D1B;" points="95.728,512 80.029,512 80.029,80.024 319.947,80.024 319.947,95.722 95.728,95.722 	"/>
	<rect x="351.195" y="80.029" style="fill:#1D1D1B;" width="160.802" height="15.698"/>
	<polygon style="fill:#1D1D1B;" points="55.715,512 40.017,512 40.017,112.034 71.874,112.034 71.874,127.732 55.715,127.732 	"/>
	<polygon style="fill:#1D1D1B;" points="15.703,512 0.005,512 0.005,144.044 31.861,144.044 31.861,159.742 15.703,159.742 	"/>
</g>
<polygon style="fill:#FFFFFF;" points="263.02,359.953 247.129,348.75 247.322,119.883 263.02,119.883 "/>
<path style="fill:#1D1D1B;" d="M291.938,383.807c-28.597,0-51.863-23.265-51.863-51.863V119.883h15.698v212.063
	c0,19.941,16.224,36.164,36.164,36.164s36.164-16.224,36.164-36.164V67.868c0-28.765-23.403-52.169-52.169-52.169
	c-28.765,0-52.169,23.403-52.169,52.169v4.001h-15.698v-4.001C208.067,30.445,238.511,0,275.934,0s67.868,30.445,67.868,67.868
	v264.078C343.801,360.543,320.535,383.807,291.938,383.807z"/>
<g>
</g>
<g>
</g>
<g>
</g>
<g>
</g>
<g>
</g>
<g>
</g>
<g>
</g>
<g>
</g>
<g>
</g>
<g>
</g>
<g>
</g>
<g>
</g>
<g>
</g>
<g>
</g>
<g>
</g>
</svg>
