<?xml version="1.0" encoding="UTF-8" standalone="no"?>
<svg
   xmlns:dc="http://purl.org/dc/elements/1.1/"
   xmlns:cc="http://creativecommons.org/ns#"
   xmlns:rdf="http://www.w3.org/1999/02/22-rdf-syntax-ns#"
   xmlns:svg="http://www.w3.org/2000/svg"
   xmlns="http://www.w3.org/2000/svg"
   xmlns:sodipodi="http://sodipodi.sourceforge.net/DTD/sodipodi-0.dtd"
   xmlns:inkscape="http://www.inkscape.org/namespaces/inkscape"
   version="1.1"
   id="Layer_1"
   x="0px"
   y="0px"
   viewBox="0 0 330 330"
   style="enable-background:new 0 0 330 330;"
   xml:space="preserve"
   sodipodi:docname="close.svg"
   inkscape:version="1.0.2 (e86c870879, 2021-01-15, custom)"><metadata
   id="metadata39"><rdf:RDF><cc:Work
       rdf:about=""><dc:format>image/svg+xml</dc:format><dc:type
         rdf:resource="http://purl.org/dc/dcmitype/StillImage" /></cc:Work></rdf:RDF></metadata><defs
   id="defs37" /><sodipodi:namedview
   pagecolor="#ffffff"
   bordercolor="#666666"
   borderopacity="1"
   objecttolerance="10"
   gridtolerance="10"
   guidetolerance="10"
   inkscape:pageopacity="0"
   inkscape:pageshadow="2"
   inkscape:window-width="832"
   inkscape:window-height="480"
   id="namedview35"
   showgrid="false"
   inkscape:zoom="2.5909091"
   inkscape:cx="165"
   inkscape:cy="165"
   inkscape:window-x="0"
   inkscape:window-y="0"
   inkscape:window-maximized="0"
   inkscape:current-layer="Layer_1" />
<g
   id="XMLID_28_"
   style="fill:#ff2a2a">
	<path
   id="XMLID_29_"
   d="M 165,0 C 120.926,0 79.492,17.163 48.328,48.327 -16.006,112.66 -16.006,217.338 48.326,281.672 79.49,312.837 120.926,330 165,330 c 44.072,0 85.508,-17.163 116.672,-48.328 64.334,-64.334 64.334,-169.012 0,-233.345 C 250.508,17.163 209.072,0 165,0 Z m 74.246,239.245 c -2.93,2.929 -6.768,4.394 -10.607,4.394 -3.838,0 -7.678,-1.465 -10.605,-4.394 L 165,186.213 111.967,239.246 c -2.93,2.929 -6.768,4.394 -10.607,4.394 -3.838,0 -7.678,-1.465 -10.605,-4.394 -5.859,-5.857 -5.859,-15.355 0,-21.213 L 143.787,165 90.754,111.967 c -5.859,-5.857 -5.859,-15.355 0,-21.213 5.857,-5.857 15.355,-5.857 21.213,0 L 165,143.787 218.031,90.754 c 5.857,-5.857 15.355,-5.857 21.213,0 5.859,5.857 5.859,15.355 0,21.213 L 186.213,165 l 53.033,53.032 c 5.858,5.858 5.858,15.356 0,21.213 z"
   style="fill:#ff2a2a" />
</g>
<g
   id="g4">
</g>
<g
   id="g6">
</g>
<g
   id="g8">
</g>
<g
   id="g10">
</g>
<g
   id="g12">
</g>
<g
   id="g14">
</g>
<g
   id="g16">
</g>
<g
   id="g18">
</g>
<g
   id="g20">
</g>
<g
   id="g22">
</g>
<g
   id="g24">
</g>
<g
   id="g26">
</g>
<g
   id="g28">
</g>
<g
   id="g30">
</g>
<g
   id="g32">
</g>
<g
   id="g43"
   style="fill:#ff2a2a">
	<path
   id="path41"
   d="M 165,0 C 120.926,0 79.492,17.163 48.328,48.327 -16.006,112.66 -16.006,217.338 48.326,281.672 79.49,312.837 120.926,330 165,330 c 44.072,0 85.508,-17.163 116.672,-48.328 64.334,-64.334 64.334,-169.012 0,-233.345 C 250.508,17.163 209.072,0 165,0 Z m 74.246,239.245 c -2.93,2.929 -6.768,4.394 -10.607,4.394 -3.838,0 -7.678,-1.465 -10.605,-4.394 L 165,186.213 111.967,239.246 c -2.93,2.929 -6.768,4.394 -10.607,4.394 -3.838,0 -7.678,-1.465 -10.605,-4.394 -5.859,-5.857 -5.859,-15.355 0,-21.213 L 143.787,165 90.754,111.967 c -5.859,-5.857 -5.859,-15.355 0,-21.213 5.857,-5.857 15.355,-5.857 21.213,0 L 165,143.787 218.031,90.754 c 5.857,-5.857 15.355,-5.857 21.213,0 5.859,5.857 5.859,15.355 0,21.213 L 186.213,165 l 53.033,53.032 c 5.858,5.858 5.858,15.356 0,21.213 z"
   style="fill:#ff2a2a" />
</g></svg>
