<?xml version="1.0" encoding="UTF-8" standalone="no"?>
<svg
   xmlns:dc="http://purl.org/dc/elements/1.1/"
   xmlns:cc="http://creativecommons.org/ns#"
   xmlns:rdf="http://www.w3.org/1999/02/22-rdf-syntax-ns#"
   xmlns:svg="http://www.w3.org/2000/svg"
   xmlns="http://www.w3.org/2000/svg"
   xmlns:sodipodi="http://sodipodi.sourceforge.net/DTD/sodipodi-0.dtd"
   xmlns:inkscape="http://www.inkscape.org/namespaces/inkscape"
   version="1.1"
   id="Layer_1"
   x="0px"
   y="0px"
   viewBox="0 0 330 330"
   style="enable-background:new 0 0 330 330;"
   xml:space="preserve"
   sodipodi:docname="delete.svg"
   inkscape:version="1.0.2 (e86c870879, 2021-01-15, custom)"><metadata
   id="metadata47"><rdf:RDF><cc:Work
       rdf:about=""><dc:format>image/svg+xml</dc:format><dc:type
         rdf:resource="http://purl.org/dc/dcmitype/StillImage" /></cc:Work></rdf:RDF></metadata><defs
   id="defs45" /><sodipodi:namedview
   pagecolor="#ffffff"
   bordercolor="#666666"
   borderopacity="1"
   objecttolerance="10"
   gridtolerance="10"
   guidetolerance="10"
   inkscape:pageopacity="0"
   inkscape:pageshadow="2"
   inkscape:window-width="755"
   inkscape:window-height="480"
   id="namedview43"
   showgrid="false"
   inkscape:zoom="0.64772727"
   inkscape:cx="130.94235"
   inkscape:cy="170.34453"
   inkscape:window-x="0"
   inkscape:window-y="0"
   inkscape:window-maximized="0"
   inkscape:current-layer="Layer_1"
   inkscape:document-rotation="0" />
<g
   id="XMLID_6_"
   style="fill:#ff2a2a">
	<g
   id="XMLID_11_"
   style="fill:#ff2a2a">
		<path
   d="M240,121.076H30V275c0,8.284,6.716,15,15,15h60h37.596c19.246,24.348,49.031,40,82.404,40c57.897,0,105-47.103,105-105    C330,172.195,290.816,128.377,240,121.076z M225,300c-41.355,0-75-33.645-75-75s33.645-75,75-75s75,33.645,75,75    S266.355,300,225,300z"
   id="path2"
   style="fill:#ff2a2a" />
	</g>
	<g
   id="XMLID_18_"
   style="fill:#ff2a2a">
		<path
   d="M240,90h15c8.284,0,15-6.716,15-15s-6.716-15-15-15h-30h-15V15c0-8.284-6.716-15-15-15H75c-8.284,0-15,6.716-15,15v45H45    H15C6.716,60,0,66.716,0,75s6.716,15,15,15h15H240z M90,30h90v30h-15h-60H90V30z"
   id="path5"
   style="fill:#ff2a2a" />
	</g>
	<g
   id="XMLID_23_"
   style="fill:#ff2a2a">
		<path
   d="M256.819,193.181c-5.857-5.858-15.355-5.858-21.213,0L225,203.787l-10.606-10.606c-5.857-5.858-15.355-5.858-21.213,0    c-5.858,5.858-5.858,15.355,0,21.213L203.787,225l-10.606,10.606c-5.858,5.858-5.858,15.355,0,21.213    c2.929,2.929,6.768,4.394,10.606,4.394c3.839,0,7.678-1.465,10.607-4.394L225,246.213l10.606,10.606    c2.929,2.929,6.768,4.394,10.607,4.394c3.839,0,7.678-1.465,10.606-4.394c5.858-5.858,5.858-15.355,0-21.213L246.213,225    l10.606-10.606C262.678,208.535,262.678,199.039,256.819,193.181z"
   id="path8"
   style="fill:#ff2a2a" />
	</g>
</g>
<g
   id="g12">
</g>
<g
   id="g14">
</g>
<g
   id="g16">
</g>
<g
   id="g18">
</g>
<g
   id="g20">
</g>
<g
   id="g22">
</g>
<g
   id="g24">
</g>
<g
   id="g26">
</g>
<g
   id="g28">
</g>
<g
   id="g30">
</g>
<g
   id="g32">
</g>
<g
   id="g34">
</g>
<g
   id="g36">
</g>
<g
   id="g38">
</g>
<g
   id="g40">
</g>
</svg>
