<?xml version="1.0" encoding="UTF-8" standalone="no"?>
<svg
   xmlns:dc="http://purl.org/dc/elements/1.1/"
   xmlns:cc="http://creativecommons.org/ns#"
   xmlns:rdf="http://www.w3.org/1999/02/22-rdf-syntax-ns#"
   xmlns:svg="http://www.w3.org/2000/svg"
   xmlns="http://www.w3.org/2000/svg"
   xmlns:sodipodi="http://sodipodi.sourceforge.net/DTD/sodipodi-0.dtd"
   xmlns:inkscape="http://www.inkscape.org/namespaces/inkscape"
   version="1.1"
   id="Capa_1"
   x="0px"
   y="0px"
   viewBox="0 0 59.527 59.527"
   style="enable-background:new 0 0 59.527 59.527;"
   xml:space="preserve"
   sodipodi:docname="edit.svg"
   inkscape:version="1.0.2 (e86c870879, 2021-01-15, custom)"><metadata
   id="metadata47"><rdf:RDF><cc:Work
       rdf:about=""><dc:format>image/svg+xml</dc:format><dc:type
         rdf:resource="http://purl.org/dc/dcmitype/StillImage" /></cc:Work></rdf:RDF></metadata><defs
   id="defs45" /><sodipodi:namedview
   pagecolor="#ffffff"
   bordercolor="#666666"
   borderopacity="1"
   objecttolerance="10"
   gridtolerance="10"
   guidetolerance="10"
   inkscape:pageopacity="0"
   inkscape:pageshadow="2"
   inkscape:window-width="755"
   inkscape:window-height="480"
   id="namedview43"
   showgrid="false"
   inkscape:zoom="3.5908075"
   inkscape:cx="-17.163737"
   inkscape:cy="25.390491"
   inkscape:window-x="0"
   inkscape:window-y="0"
   inkscape:window-maximized="0"
   inkscape:current-layer="Capa_1" />
<g
   id="g10"
   transform="matrix(1.1453044,0,0,1.1122816,4.9621713,-0.46547213)">
	<polygon
   points="17.156,53.327 35.095,48.52 33.491,42.535 15.664,47.76 "
   id="polygon2" />
	<path
   d="m 13.81,1.32 6.665,24.66 c 0.062,-0.003 0.124,-0.012 0.186,-0.012 2.054,0 3.861,1.388 4.394,3.374 0.649,2.424 -0.794,4.925 -3.218,5.574 -0.386,0.104 -0.783,0.156 -1.18,0.156 -2.055,0 -3.862,-1.388 -4.394,-3.375 -0.315,-1.174 -0.153,-2.4 0.454,-3.453 0.437,-0.756 1.072,-1.35 1.827,-1.745 L 11.924,2.005 0,38.316 5.495,36.844 c 0.596,-0.159 1.207,-0.24 1.817,-0.24 3.157,0 5.934,2.133 6.752,5.188 l 1.082,4.036 17.827,-5.225 -0.969,-3.617 c -0.483,-1.806 -0.235,-3.691 0.699,-5.31 0.934,-1.619 2.443,-2.776 4.249,-3.26 l 5.495,-1.473 z"
   id="path4" />
	<path
   d="m 18.194,31.18 c 0.356,1.329 1.781,2.167 3.125,1.805 1.358,-0.364 2.168,-1.767 1.804,-3.125 -0.299,-1.113 -1.311,-1.892 -2.462,-1.892 -0.221,0 -0.443,0.029 -0.66,0.088 H 20 c -0.001,0 -0.002,0 -0.003,0 -0.658,0.177 -1.208,0.599 -1.548,1.188 -0.341,0.591 -0.431,1.278 -0.255,1.936 z"
   id="path6" />
	
</g>
<g
   id="g12">
</g>
<g
   id="g14">
</g>
<g
   id="g16">
</g>
<g
   id="g18">
</g>
<g
   id="g20">
</g>
<g
   id="g22">
</g>
<g
   id="g24">
</g>
<g
   id="g26">
</g>
<g
   id="g28">
</g>
<g
   id="g30">
</g>
<g
   id="g32">
</g>
<g
   id="g34">
</g>
<g
   id="g36">
</g>
<g
   id="g38">
</g>
<g
   id="g40">
</g>
</svg>
