<?xml version="1.0" encoding="utf-8"?>
<!-- Generator: Adobe Illustrator 15.0.0, SVG Export Plug-In . SVG Version: 6.00 Build 0)  -->
<!DOCTYPE svg PUBLIC "-//W3C//DTD SVG 1.1//EN" "http://www.w3.org/Graphics/SVG/1.1/DTD/svg11.dtd">
<svg version="1.1" id="Capa_1" xmlns="http://www.w3.org/2000/svg" xmlns:xlink="http://www.w3.org/1999/xlink" x="0px" y="0px"
	 width="600px" height="600px" viewBox="0 0 600 600" enable-background="new 0 0 600 600" xml:space="preserve">
<g>
	<path fill="#4C6B62" d="M500,423.139C500,465.587,465.587,500,423.138,500H176.862C134.413,500,100,465.587,100,423.139V176.862
		C100,134.413,134.413,100,176.862,100h246.275C465.587,100,500,134.413,500,176.862V423.139z"/>
	<path fill="#426158" d="M500,423.139V264.812l-68.108-46.778L163.206,377.652L323.24,500h99.897
		C465.587,500,500,465.587,500,423.139z"/>
	<g>
		<path fill="#223E52" d="M445.315,355.89c0,17.708-14.354,32.061-32.06,32.061H186.742c-17.708,0-32.059-14.353-32.059-32.061
			V244.111c0-17.706,14.352-32.059,32.059-32.059h226.514c17.706,0,32.06,14.353,32.06,32.059V355.89z"/>
		<path fill="#4D3D4D" d="M409.64,312.955c0,17.704-14.354,32.062-32.059,32.062H222.416c-17.706,0-32.059-14.357-32.059-32.062
			v-7.992c0-17.707,14.354-32.06,32.059-32.06h155.166c17.705,0,32.059,14.353,32.059,32.06V312.955z"/>
		<path fill="#8DB3B3" d="M230.43,282.029c-14.872,0-26.929,12.058-26.929,26.93c0,14.87,12.057,26.93,26.929,26.93
			c14.874,0,26.93-12.06,26.93-26.93C257.359,294.086,245.304,282.029,230.43,282.029z M230.43,323.328
			c-7.936,0-14.371-6.431-14.371-14.369c0-7.938,6.435-14.372,14.371-14.372c7.938,0,14.373,6.434,14.373,14.372
			C244.803,316.897,238.368,323.328,230.43,323.328z"/>
		<path fill="#8DB3B3" d="M369.566,287.585c-11.805,0-21.373,9.57-21.373,21.374c0,11.806,9.568,21.371,21.373,21.371
			c11.803,0,21.373-9.565,21.373-21.371C390.939,297.155,381.369,287.585,369.566,287.585z M369.566,324.119
			c-8.372,0-15.161-6.787-15.161-15.16s6.789-15.162,15.161-15.162s15.161,6.789,15.161,15.162S377.938,324.119,369.566,324.119z"/>
		<rect x="245.147" y="261.229" fill="#223E52" width="109.703" height="99.04"/>
		<path fill="#E7BD79" d="M345.504,323.065c0,7.081-5.742,12.823-12.822,12.823h-66.646c-7.083,0-12.823-5.742-12.823-12.823
			v-29.924c0-7.083,5.74-12.825,12.823-12.825h66.646c7.08,0,12.822,5.742,12.822,12.825V323.065z"/>
		<rect x="253.212" y="294.591" fill="#DCD4B6" width="92.292" height="26.909"/>
		<path fill="#DC7D49" d="M413.256,212.052H186.742c-17.463,0-31.656,13.965-32.042,31.334h290.598
			C444.912,226.018,430.72,212.052,413.256,212.052z"/>
		<path fill="#9F4456" d="M340.408,301.314c0,1.237-1.004,2.243-2.245,2.243h-77.612c-1.241,0-2.245-1.006-2.245-2.243l0,0
			c0-1.241,1.004-2.245,2.245-2.245h77.612C339.404,299.069,340.408,300.073,340.408,301.314L340.408,301.314z"/>
		<path fill="#9F4456" d="M340.408,308.047c0,1.241-1.004,2.243-2.245,2.243h-77.612c-1.241,0-2.245-1.002-2.245-2.243l0,0
			c0-1.24,1.004-2.242,2.245-2.242h77.612C339.404,305.805,340.408,306.807,340.408,308.047L340.408,308.047z"/>
		<path fill="#9F4456" d="M340.408,314.779c0,1.241-1.004,2.247-2.245,2.247h-77.612c-1.241,0-2.245-1.006-2.245-2.247l0,0
			c0-1.24,1.004-2.242,2.245-2.242h77.612C339.404,312.537,340.408,313.539,340.408,314.779L340.408,314.779z"/>
	</g>
</g>
</svg>
