<?xml version="1.0" encoding="UTF-8" standalone="no"?>
<svg
   xmlns:dc="http://purl.org/dc/elements/1.1/"
   xmlns:cc="http://creativecommons.org/ns#"
   xmlns:rdf="http://www.w3.org/1999/02/22-rdf-syntax-ns#"
   xmlns:svg="http://www.w3.org/2000/svg"
   xmlns="http://www.w3.org/2000/svg"
   xmlns:sodipodi="http://sodipodi.sourceforge.net/DTD/sodipodi-0.dtd"
   xmlns:inkscape="http://www.inkscape.org/namespaces/inkscape"
   width="260"
   height="260"
   viewBox="0 0 260 260.00001"
   version="1.1"
   id="svg8"
   inkscape:version="1.0.2 (e86c870879, 2021-01-15)"
   sodipodi:docname="icon.svg">
  <defs
     id="defs2" />
  <sodipodi:namedview
     id="base"
     pagecolor="#ffffff"
     bordercolor="#666666"
     borderopacity="1.0"
     inkscape:pageopacity="0.0"
     inkscape:pageshadow="2"
     inkscape:zoom="0.7"
     inkscape:cx="411.10748"
     inkscape:cy="261.91995"
     inkscape:document-units="px"
     inkscape:current-layer="layer1"
     inkscape:document-rotation="0"
     showgrid="false"
     units="px"
     inkscape:window-width="1496"
     inkscape:window-height="1026"
     inkscape:window-x="128"
     inkscape:window-y="27"
     inkscape:window-maximized="0" />
  <metadata
     id="metadata5">
    <rdf:RDF>
      <cc:Work
         rdf:about="">
        <dc:format>image/svg+xml</dc:format>
        <dc:type
           rdf:resource="http://purl.org/dc/dcmitype/StillImage" />
        <dc:title></dc:title>
      </cc:Work>
    </rdf:RDF>
  </metadata>
  <g
     inkscape:label="Layer 1"
     inkscape:groupmode="layer"
     id="layer1">
    <g
       style="fill:#d45500"
       id="g49"
       transform="matrix(-12.364986,0,0,12.637333,273.67091,-11.563207)">
      <path
         d="M 8,9.50004 C 7.30964,9.50004 6.75,10.0597 6.75,10.75 6.75,11.4404 7.30964,12 8,12 8.69036,12 9.25,11.4404 9.25,10.75 9.25,10.0597 8.69036,9.50004 8,9.50004 Z"
         fill="#000000"
         id="path29"
         style="fill:#d45500" />
      <path
         d="m 12,9.50004 c -0.6904,0 -1.25,0.55966 -1.25,1.24996 0,0.6904 0.5596,1.25 1.25,1.25 0.6904,0 1.25,-0.5596 1.25,-1.25 0,-0.6903 -0.5596,-1.24996 -1.25,-1.24996 z"
         fill="#000000"
         id="path31"
         style="fill:#d45500" />
      <path
         d="m 14.75,10.75 c 0,-0.6903 0.5596,-1.24996 1.25,-1.24996 0.6904,0 1.25,0.55966 1.25,1.24996 0,0.6904 -0.5596,1.25 -1.25,1.25 -0.6904,0 -1.25,-0.5596 -1.25,-1.25 z"
         fill="#000000"
         id="path33"
         style="fill:#d45500" />
      <path
         fill-rule="evenodd"
         clip-rule="evenodd"
         d="M 16.1007,4.59283 C 13.4065,4.36307 10.6983,4.34974 8.00194,4.55296 L 7.80871,4.56752 C 5.23741,4.76132 3.25,6.90415 3.25,9.48275 V 18 c 0,0.2639 0.13867,0.5084 0.36515,0.6438 0.22648,0.1354 0.50746,0.1418 0.73989,0.0169 L 8.26583,16.559 C 8.44774,16.4612 8.65104,16.41 8.85756,16.41 H 17.834 c 1.1321,0 2.1022,-0.8094 2.3052,-1.9231 0.4113,-2.2572 0.4437,-4.5672 0.0961,-6.83511 L 20.1329,6.98346 C 19.9464,5.76671 18.951,4.8359 17.7245,4.7313 Z M 8.11468,6.04871 C 10.731,5.85152 13.359,5.86446 15.9733,6.0874 l 1.6237,0.13848 c 0.5364,0.04574 0.9716,0.45277 1.0532,0.98485 l 0.1024,0.66833 C 19.075,9.98234 19.0449,12.1246 18.6635,14.218 18.5904,14.6188 18.2413,14.91 17.834,14.91 H 8.85756 c -0.45434,0 -0.9016,0.1126 -1.30181,0.3277 L 4.75,16.7455 V 9.48275 C 4.75,7.68884 6.13262,6.1981 7.92144,6.06328 Z"
         fill="#000000"
         id="path35"
         style="fill:#d45500" />
    </g>
  </g>
</svg>
