<?xml version="1.0" encoding="iso-8859-1"?>
<!-- Generator: Adobe Illustrator 19.0.0, SVG Export Plug-In . SVG Version: 6.00 Build 0)  -->
<svg version="1.1" id="Layer_1" xmlns="http://www.w3.org/2000/svg" xmlns:xlink="http://www.w3.org/1999/xlink" x="0px" y="0px"
	 viewBox="0 0 483.2 483.2" style="enable-background:new 0 0 483.2 483.2;" xml:space="preserve">
<polygon style="fill:#FFFFFF;" points="33.6,0 33.6,352 163.2,480 449.6,480 449.6,0 "/>
<polyline style="fill:#E9F4F3;" points="449.6,480 449.6,0 33.6,0 "/>
<polyline style="fill:#D4E8E5;" points="449.6,224 449.6,0 33.6,0 "/>
<polygon style="fill:#D6E5E3;" points="289.6,480.8 161.6,352 161.6,480 289.6,480 "/>
<polygon style="fill:#8AC4BD;" points="33.6,352 161.6,483.2 161.6,352 "/>
<polygon style="fill:#67A59C;" points="82.4,402.4 161.6,483.2 161.6,352 95.2,413.6 "/>
<polygon style="fill:#1589AD;" points="384.8,336.8 303.2,343.2 222.4,336.8 303.2,176.8 "/>
<polyline style="fill:#035670;" points="303.2,176.8 384.8,336.8 303.2,343.2 "/>
<polygon style="fill:#1EA4C4;" points="303.2,314.4 349.6,268 324,216.8 303.2,196 283.2,216.8 256.8,268 "/>
<polyline style="fill:#066B93;" points="303.2,314.4 349.6,268 324,216.8 303.2,196 "/>
<polygon style="fill:#1589AD;" points="338.4,332.8 218.4,343.2 98.4,332.8 218.4,97.6 "/>
<polyline style="fill:#057091;" points="218.4,97.6 338.4,332.8 218.4,343.2 "/>
<polygon style="fill:#1EA4C4;" points="218.4,300.8 286.4,232.8 248,156.8 218.4,126.4 188.8,156.8 149.6,232.8 "/>
<polyline style="fill:#1290AD;" points="218.4,300.8 286.4,232.8 248,156.8 218.4,126.4 "/>
<polygon style="fill:#9ADFEF;" points="237.6,214.4 257.6,234.4 277.6,214.4 218.4,97.6 159.2,214.4 179.2,234.4 199.2,214.4 
	218.4,234.4 "/>
<polyline style="fill:#7DD4E2;" points="218.4,234.4 237.6,214.4 257.6,234.4 277.6,214.4 218.4,97.6 "/>
<rect x="97.6" y="328" style="fill:#057091;" width="288" height="16"/>
<circle style="fill:#F98D2B;" cx="349.6" cy="136" r="37.6"/>
<path style="fill:#DD6E12;" d="M376.8,108.8c14.4,14.4,14.4,38.4,0,53.6s-38.4,14.4-53.6,0"/>
<g>
</g>
<g>
</g>
<g>
</g>
<g>
</g>
<g>
</g>
<g>
</g>
<g>
</g>
<g>
</g>
<g>
</g>
<g>
</g>
<g>
</g>
<g>
</g>
<g>
</g>
<g>
</g>
<g>
</g>
</svg>
