<?xml version="1.0" encoding="iso-8859-1"?>
<!-- Generator: Adobe Illustrator 19.0.0, SVG Export Plug-In . SVG Version: 6.00 Build 0)  -->
<svg version="1.1" id="Layer_1" xmlns="http://www.w3.org/2000/svg" xmlns:xlink="http://www.w3.org/1999/xlink" x="0px" y="0px"
	 viewBox="0 0 512 512" style="enable-background:new 0 0 512 512;" xml:space="preserve">
<circle style="fill:#F7B239;" cx="255.995" cy="256" r="225.632"/>
<path style="fill:#E09B2D;" d="M137.457,374.547C56.289,293.38,49.893,165.759,118.263,77.268
	c-7.573,5.851-14.86,12.247-21.807,19.193c-88.113,88.113-88.113,230.973,0,319.086s230.973,88.113,319.086,0
	c6.946-6.946,13.342-14.234,19.194-21.807C346.244,462.11,218.624,455.714,137.457,374.547z"/>
<g>
	<path style="fill:#4D4D4D;" d="M187.314,198.885c-4.619,0-8.363-3.744-8.363-8.363c0-19.986-16.26-36.246-36.246-36.246
		s-36.246,16.26-36.246,36.246c0,4.619-3.744,8.363-8.363,8.363c-4.619,0-8.363-3.744-8.363-8.363
		c0-29.209,23.763-52.972,52.972-52.972s52.972,23.763,52.972,52.972C195.677,195.141,191.933,198.885,187.314,198.885z"/>
	<path style="fill:#4D4D4D;" d="M413.903,198.885c-4.62,0-8.363-3.744-8.363-8.363c0-19.986-16.26-36.246-36.246-36.246
		c-19.985,0-36.245,16.26-36.245,36.246c0,4.619-3.743,8.363-8.363,8.363s-8.363-3.744-8.363-8.363
		c0-29.209,23.763-52.972,52.971-52.972s52.972,23.763,52.972,52.972C422.266,195.141,418.522,198.885,413.903,198.885z"/>
</g>
<path style="fill:#2BA5F7;" d="M0,256.004L0,256.004c0-27.089,21.96-49.048,49.048-49.048h49.048v49.048
	c0,27.088-21.96,49.048-49.048,49.048l0,0C21.96,305.053,0,283.093,0,256.004z"/>
<path style="fill:#2197D8;" d="M23.251,256.004L23.251,256.004c0-27.089,21.96-49.048,49.048-49.048H49.048
	C21.96,206.956,0,228.916,0,256.004l0,0c0,27.089,21.96,49.048,49.048,49.048l0,0c4.008,0,7.898-0.492,11.626-1.398
	C39.199,298.433,23.251,279.086,23.251,256.004z"/>
<path style="fill:#2BA5F7;" d="M512,256.004L512,256.004c0-27.089-21.96-49.048-49.048-49.048h-49.048v49.048
	c0,27.088,21.96,49.048,49.048,49.048l0,0C490.04,305.053,512,283.093,512,256.004z"/>
<path style="fill:#2197D8;" d="M432.397,256.004v-49.048h-18.494v49.048c0,27.089,21.96,49.048,49.048,49.048l0,0
	c3.162,0,6.251-0.311,9.247-0.883C449.533,299.844,432.397,279.931,432.397,256.004z"/>
<path style="fill:#A81004;" d="M165.006,232.899c-6.669-5.017-16.205-0.206-16.205,8.139v16.861v12.756
	c0,33.608,15.466,63.614,39.685,83.25c18.432,14.975,41.926,23.94,67.517,23.94s49.085-8.965,67.517-23.94
	c2.888-2.342,5.653-4.828,8.274-7.46c19.402-19.391,31.4-46.186,31.4-75.79v-12.756V241.04c0-8.346-9.536-13.157-16.205-8.139
	C293.249,273.331,218.752,273.331,165.006,232.899z"/>
<path style="fill:#F2F2F2;" d="M363.194,241.04v16.859c-59.198,59.198-155.183,59.198-214.392,0v-16.861
	c0-8.345,9.536-13.157,16.205-8.139c53.746,40.432,128.243,40.433,181.982,0.002C353.657,227.883,363.194,232.694,363.194,241.04z"
	/>
<path style="fill:#F95428;" d="M283.41,330.049c17.395,0.096,32.46,9.892,40.11,24.229c-18.514,14.874-42.058,23.708-67.648,23.567
	s-49.035-9.236-67.384-24.313c7.795-14.253,22.98-23.881,40.363-23.784c10.225,0.057,19.651,3.464,27.235,9.182
	C263.733,333.297,273.185,329.993,283.41,330.049z"/>
<g>
</g>
<g>
</g>
<g>
</g>
<g>
</g>
<g>
</g>
<g>
</g>
<g>
</g>
<g>
</g>
<g>
</g>
<g>
</g>
<g>
</g>
<g>
</g>
<g>
</g>
<g>
</g>
<g>
</g>
</svg>
