<?xml version="1.0" encoding="UTF-8" standalone="no"?>
<svg
   xmlns:dc="http://purl.org/dc/elements/1.1/"
   xmlns:cc="http://creativecommons.org/ns#"
   xmlns:rdf="http://www.w3.org/1999/02/22-rdf-syntax-ns#"
   xmlns:svg="http://www.w3.org/2000/svg"
   xmlns="http://www.w3.org/2000/svg"
   xmlns:sodipodi="http://sodipodi.sourceforge.net/DTD/sodipodi-0.dtd"
   xmlns:inkscape="http://www.inkscape.org/namespaces/inkscape"
   version="1.1"
   id="Layer_1"
   x="0px"
   y="0px"
   viewBox="0 0 512.001 512.001"
   style="enable-background:new 0 0 512.001 512.001;"
   xml:space="preserve"
   sodipodi:docname="pattern.svg"
   inkscape:version="1.0.2 (e86c870879, 2021-01-15, custom)"><metadata
   id="metadata43"><rdf:RDF><cc:Work
       rdf:about=""><dc:format>image/svg+xml</dc:format><dc:type
         rdf:resource="http://purl.org/dc/dcmitype/StillImage" /></cc:Work></rdf:RDF></metadata><defs
   id="defs41" /><sodipodi:namedview
   pagecolor="#ffffff"
   bordercolor="#666666"
   borderopacity="1"
   objecttolerance="10"
   gridtolerance="10"
   guidetolerance="10"
   inkscape:pageopacity="0"
   inkscape:pageshadow="2"
   inkscape:window-width="1721"
   inkscape:window-height="1019"
   id="namedview39"
   showgrid="false"
   inkscape:zoom="0.20873984"
   inkscape:cx="-1382.0481"
   inkscape:cy="-167.56932"
   inkscape:window-x="0"
   inkscape:window-y="0"
   inkscape:window-maximized="0"
   inkscape:current-layer="Layer_1"
   inkscape:document-rotation="0" />
<g
   id="g6"
   style="fill:#f0efeb;fill-opacity:1">
	<g
   id="g4"
   style="fill:#f0efeb;fill-opacity:1">
		<path
   d="m 503.032,394.775 h -76.738 l 82.927,-82.624 c 1.686,-1.681 2.636,-3.963 2.638,-6.346 0.002,-2.382 -0.941,-4.665 -2.625,-6.35 l -43.004,-43.03 43.01,-43.108 c 3.496,-3.504 3.492,-9.177 -0.008,-12.678 l -83.372,-83.362 77.179,-0.056 c 4.95,0 8.961,-4.016 8.961,-8.966 V 9.443 c 0,-4.955 -4.015,-8.969 -8.969,-8.969 h -98.812 c -4.955,0 -8.969,4.015 -8.969,8.969 V 86.676 L 311.664,3.1 c -1.681,-1.681 -3.963,-2.627 -6.344,-2.626 -2.379,0.001 -4.661,0.946 -6.343,2.63 L 255.976,46.141 212.935,3.1 c -1.683,-1.681 -3.963,-2.626 -6.343,-2.626 -2.38,0 -4.66,0.946 -6.343,2.627 L 116.752,86.633 V 9.443 c 0,-4.955 -4.016,-8.969 -8.969,-8.969 H 8.969 C 4.016,0.474 0,4.488 0,9.443 v 98.812 c 0,4.955 4.016,8.969 8.969,8.969 H 86.171 L 2.626,200.801 C 0.944,202.485 0,204.766 0,207.145 c 0,2.379 0.947,4.66 2.63,6.343 l 43.061,43.028 -43.065,43.098 c -1.684,1.685 -2.629,3.972 -2.625,6.354 0.004,2.382 0.954,4.665 2.643,6.347 l 82.891,82.462 H 8.969 C 4.016,394.777 0,398.792 0,403.746 v 98.812 c 0,4.955 4.016,8.969 8.969,8.969 h 98.812 c 4.953,0 8.969,-4.015 8.969,-8.969 v -76.726 l 83.517,83.085 c 1.75,1.74 4.037,2.611 6.326,2.611 2.294,0 4.589,-0.874 6.34,-2.624 l 43.085,-43.048 43.046,43.046 c 1.752,1.751 4.047,2.626 6.343,2.626 2.29,0 4.58,-0.872 6.331,-2.615 l 83.512,-83.207 v 76.852 c 0,4.955 4.015,8.969 8.969,8.969 h 98.812 c 4.955,0 8.969,-4.015 8.969,-8.969 v -98.812 c 10e-4,-4.956 -4.013,-8.971 -8.968,-8.971 z m -12.837,-88.991 -77.007,76.725 v -72.92 l 40.372,-40.464 z m 0.017,-98.791 -36.662,36.746 -40.361,-40.386 V 129.979 Z M 413.188,18.411 h 80.874 v 80.882 l -80.874,0.057 z m -107.862,3.718 77.221,77.213 -73.422,-0.053 -40.464,-40.465 z m 89.923,95.161 v 80.808 H 314.375 V 117.233 Z M 206.595,22.128 243.298,58.831 202.877,99.286 h -73.409 z m -89.844,95.096 h 80.874 v 80.874 H 116.751 Z M 17.939,99.286 V 18.412 h 80.874 v 80.874 z m 3.715,107.853 77.158,-77.187 v 73.401 L 58.37,243.827 Z m 77.158,286.45 H 17.939 v -80.874 h 80.874 v 80.874 z m 0,-110.908 -77.145,-76.745 36.712,-36.74 40.433,40.402 z m 107.769,107.211 -77.579,-77.177 h 73.876 l 40.455,40.455 z m -89.83,-95.115 V 314.85 l 80.869,-0.001 h 0.005 v 79.928 z m 188.667,95.108 -36.71,-36.71 40.413,-40.38 73.73,-0.062 z m 89.831,-95.1 -80.874,0.068 v -80.002 h 80.874 z m 5.249,-97.874 h -95.092 c -4.955,0 -8.969,4.015 -8.969,8.969 v 94.232 l -40.413,40.379 -40.461,-40.46 V 305.88 c 0,-2.379 -0.945,-4.659 -2.627,-6.343 -1.683,-1.681 -3.963,-2.626 -6.342,-2.626 l -95.099,10e-4 -40.435,-40.404 40.44,-40.471 h 95.095 c 4.953,0 8.969,-4.015 8.969,-8.969 v -95.1 l 40.418,-40.452 40.455,40.455 v 95.097 c 0,4.955 4.015,8.969 8.969,8.969 h 95.095 l 40.378,40.401 z m 93.563,196.678 h -80.874 v -80.874 h 80.874 z"
   id="path2"
   style="fill:#f0efeb;fill-opacity:1" />
	</g>
</g>
<g
   id="g8">
</g>
<g
   id="g10">
</g>
<g
   id="g12">
</g>
<g
   id="g14">
</g>
<g
   id="g16">
</g>
<g
   id="g18">
</g>
<g
   id="g20">
</g>
<g
   id="g22">
</g>
<g
   id="g24">
</g>
<g
   id="g26">
</g>
<g
   id="g28">
</g>
<g
   id="g30">
</g>
<g
   id="g32">
</g>
<g
   id="g34">
</g>
<g
   id="g36">
</g>
</svg>
