<?xml version="1.0" encoding="iso-8859-1"?>
<!-- Generator: Adobe Illustrator 19.0.0, SVG Export Plug-In . SVG Version: 6.00 Build 0)  -->
<svg version="1.1" id="Layer_1" xmlns="http://www.w3.org/2000/svg" xmlns:xlink="http://www.w3.org/1999/xlink" x="0px" y="0px"
	 viewBox="0 0 512.009 512.009" style="enable-background:new 0 0 512.009 512.009;" xml:space="preserve">
<circle style="fill:#F7B239;" cx="256.004" cy="256.004" r="256.004"/>
<g>
	<path style="fill:#E09B2D;" d="M121.499,390.501C29.407,298.407,22.15,153.608,99.723,53.204
		c-8.593,6.638-16.861,13.895-24.743,21.777c-99.974,99.974-99.974,262.065,0,362.038s262.065,99.974,362.038,0
		c7.881-7.881,15.138-16.15,21.777-24.743C358.392,489.85,213.593,482.593,121.499,390.501z"/>
	<path style="fill:#E09B2D;" d="M288.234,367.985c-1.484,0-2.988-0.349-4.394-1.084c-8.513-4.457-18.142-6.814-27.845-6.814
		c-9.699,0-19.324,2.356-27.836,6.813c-4.639,2.432-10.376,0.639-12.808-4.004c-2.43-4.642-0.638-10.377,4.004-12.807
		c11.218-5.874,23.887-8.979,36.64-8.979c12.755,0,25.428,3.105,36.647,8.979c4.643,2.43,6.436,8.165,4.005,12.807
		C294.954,366.133,291.651,367.985,288.234,367.985z"/>
</g>
<g>
	<path style="fill:#4D4D4D;" d="M257.185,302.041c-39.121,0-75.902,15.235-103.564,42.898c-3.706,3.706-3.706,9.713,0,13.418
		c3.707,3.706,9.714,3.706,13.42,0c24.077-24.078,56.092-37.34,90.145-37.34s66.068,13.261,90.145,37.34
		c1.853,1.853,4.281,2.78,6.71,2.78c2.428,0,4.857-0.926,6.71-2.78c3.706-3.706,3.706-9.713,0-13.418
		C333.087,317.276,296.306,302.041,257.185,302.041z"/>
	<path style="fill:#4D4D4D;" d="M158.362,132.143c0-5.24-4.247-9.489-9.489-9.489c-5.242,0-9.489,4.248-9.489,9.489
		c0,27.852-22.659,50.513-50.513,50.513c-5.242,0-9.489,4.248-9.489,9.489c0,5.24,4.247,9.489,9.489,9.489
		C127.189,201.632,158.362,170.46,158.362,132.143z"/>
	<path style="fill:#4D4D4D;" d="M423.128,182.654c-27.854,0-50.513-22.659-50.513-50.513c0-5.24-4.247-9.489-9.489-9.489
		s-9.489,4.248-9.489,9.489c0,38.317,31.173,69.49,69.49,69.49c5.242,0,9.489-4.248,9.489-9.489
		C432.617,186.903,428.369,182.654,423.128,182.654z"/>
	<path style="fill:#4D4D4D;" d="M177.781,229.019c0-19.358-15.749-35.107-35.107-35.107s-35.107,15.749-35.107,35.107
		s15.749,35.107,35.107,35.107S177.781,248.377,177.781,229.019z"/>
	<path style="fill:#4D4D4D;" d="M369.326,193.912c-19.358,0-35.107,15.749-35.107,35.107s15.749,35.107,35.107,35.107
		s35.107-15.749,35.107-35.107S388.684,193.912,369.326,193.912z"/>
</g>
<g>
</g>
<g>
</g>
<g>
</g>
<g>
</g>
<g>
</g>
<g>
</g>
<g>
</g>
<g>
</g>
<g>
</g>
<g>
</g>
<g>
</g>
<g>
</g>
<g>
</g>
<g>
</g>
<g>
</g>
</svg>
