<?xml version="1.0" encoding="UTF-8" standalone="no"?>
<svg
   xmlns:dc="http://purl.org/dc/elements/1.1/"
   xmlns:cc="http://creativecommons.org/ns#"
   xmlns:rdf="http://www.w3.org/1999/02/22-rdf-syntax-ns#"
   xmlns:svg="http://www.w3.org/2000/svg"
   xmlns="http://www.w3.org/2000/svg"
   xmlns:sodipodi="http://sodipodi.sourceforge.net/DTD/sodipodi-0.dtd"
   xmlns:inkscape="http://www.inkscape.org/namespaces/inkscape"
   width="24px"
   height="24px"
   viewBox="0 0 24 24"
   fill="none"
   version="1.1"
   id="svg4"
   sodipodi:docname="send2.svg"
   inkscape:version="1.0.2 (e86c870879, 2021-01-15)">
  <metadata
     id="metadata10">
    <rdf:RDF>
      <cc:Work
         rdf:about="">
        <dc:format>image/svg+xml</dc:format>
        <dc:type
           rdf:resource="http://purl.org/dc/dcmitype/StillImage" />
      </cc:Work>
    </rdf:RDF>
  </metadata>
  <defs
     id="defs8" />
  <sodipodi:namedview
     pagecolor="#ffffff"
     bordercolor="#666666"
     borderopacity="1"
     objecttolerance="10"
     gridtolerance="10"
     guidetolerance="10"
     inkscape:pageopacity="0"
     inkscape:pageshadow="2"
     inkscape:window-width="1135"
     inkscape:window-height="810"
     id="namedview6"
     showgrid="false"
     inkscape:zoom="17.479167"
     inkscape:cx="10.309773"
     inkscape:cy="11.868146"
     inkscape:window-x="0"
     inkscape:window-y="27"
     inkscape:window-maximized="0"
     inkscape:current-layer="svg4" />
  <path
     d="M 7.7577801,6.14799 C 6.84443,5.77187 6.0833001,5.45843 5.49196,5.30702 4.91915,5.16036 4.18085,5.07761 3.63766,5.62862 3.09447,6.17962 3.18776,6.91666 3.34259,7.48732 3.50242,8.0764399 3.8267,8.83302 4.21583,9.7409 L 4.86259,11.25 H 10 c 0.4142,0 0.75,0.3358 0.75,0.75 0,0.4142 -0.3358,0.75 -0.75,0.75 H 4.8626 l -0.64677,1.5091 c -0.38913,0.9079 -0.71341,1.6645 -0.87324,2.2536 -0.15483,0.5706 -0.24812,1.3077 0.29507,1.8587 0.54319,0.551 1.28149,0.4682 1.8543,0.3216 0.5913401,-0.1514 1.35247,-0.4649 2.2658102,-0.841 L 19.1997,13.1406 c 0.2056,-0.0845 0.4282,-0.1761 0.5944,-0.2736 0.1499,-0.088 0.5493,-0.3478 0.5493,-0.867 0,-0.5192 -0.3994,-0.779 -0.5493,-0.867 -0.1662,-0.0975 -0.3888,-0.1891 -0.5944,-0.2736 z"
     fill="black"
     id="path2"
     style="fill:#f9f9f9;stroke-width:1" />
</svg>
